<?xml version="1.0" standalone="no"?>
<!DOCTYPE svg PUBLIC "-//W3C//DTD SVG 20010904//EN"
 "http://www.w3.org/TR/2001/REC-SVG-20010904/DTD/svg10.dtd">
<svg version="1.0" xmlns="http://www.w3.org/2000/svg"
 width="300.000000pt" height="300.000000pt" viewBox="0 0 300.000000 300.000000"
 preserveAspectRatio="xMidYMid meet">
<metadata>
Created by potrace 1.10, written by Peter Selinger 2001-2011
</metadata>
<g transform="translate(0.000000,300.000000) scale(0.100000,-0.100000)"
fill="#000000" stroke="none">
<path d="M764 2251 c-49 -30 -77 -77 -82 -138 -6 -67 10 -104 61 -148 88 -76
214 -49 268 58 41 79 4 193 -74 230 -48 23 -134 22 -173 -2z m162 -40 c32 -19
64 -74 64 -109 0 -88 -86 -155 -170 -132 -111 30 -135 181 -37 240 41 25 103
25 143 1z"/>
<path d="M1294 2182 c-57 -27 -87 -73 -92 -141 -3 -46 0 -62 20 -91 36 -54 83
-80 141 -80 97 0 169 67 170 158 1 125 -125 207 -239 154z m120 -36 c49 -20
76 -60 76 -113 0 -61 -25 -99 -77 -119 -90 -34 -180 32 -170 125 6 54 34 92
78 108 45 16 54 16 93 -1z"/>
<path d="M2477 2103 c-4 -3 -7 -51 -7 -105 0 -75 3 -99 13 -96 8 3 13 36 15
106 2 93 -2 114 -21 95z"/>
<path d="M1922 1998 c3 -108 19 -137 28 -51 l5 48 43 3 c23 2 42 7 42 11 0 13
-41 21 -67 15 -19 -5 -23 -2 -23 19 0 30 21 40 68 31 27 -5 34 -4 30 7 -3 10
-25 15 -67 17 l-62 3 3 -103z"/>
<path d="M2207 2044 c-4 -4 -7 -38 -7 -76 0 -51 3 -69 13 -65 7 2 11 16 9 36
-4 31 19 71 40 71 4 0 8 -27 8 -61 0 -44 3 -59 13 -56 8 3 11 21 9 56 -3 40 0
52 13 57 23 9 35 -12 35 -63 0 -32 4 -43 15 -43 13 0 15 9 9 53 -10 82 -30
105 -63 75 -11 -10 -14 -10 -18 0 -6 17 -28 15 -44 -4 -12 -15 -14 -15 -19 5
-3 13 -8 19 -13 15z"/>
<path d="M2085 2015 c-26 -25 -32 -68 -15 -95 6 -10 27 -15 60 -16 47 -1 50 1
44 20 -4 12 -6 38 -6 58 1 28 -3 40 -17 48 -29 15 -39 13 -66 -15z m53 -47
c-3 -48 -29 -64 -47 -29 -15 26 5 71 31 71 16 0 19 -6 16 -42z"/>
<path d="M2406 2033 c-3 -3 -6 -33 -6 -65 0 -45 3 -58 15 -58 12 0 15 13 15
59 0 56 -9 79 -24 64z"/>
<path d="M2520 2030 c0 -6 11 -33 25 -60 23 -46 24 -50 9 -86 -11 -25 -12 -40
-5 -47 7 -7 16 1 27 29 9 21 29 67 44 101 16 34 26 64 22 67 -12 13 -21 4 -38
-40 l-18 -46 -23 46 c-22 42 -43 60 -43 36z"/>
<path d="M1075 1900 c-54 -14 -106 -19 -224 -19 -182 -1 -212 -11 -286 -93
-36 -40 -135 -218 -135 -243 0 -3 11 -5 24 -5 13 0 39 -11 59 -24 l36 -25 7
22 c12 39 77 178 81 173 2 -2 4 -119 3 -259 -1 -239 1 -257 20 -289 32 -54 60
-146 66 -219 6 -64 6 -68 -19 -84 -16 -10 -34 -14 -47 -10 -20 6 -20 3 -20
-164 0 -185 6 -213 51 -237 41 -21 74 -17 108 12 l31 26 0 379 c0 372 0 379
20 379 20 0 20 -7 20 -366 0 -323 2 -369 17 -394 33 -56 96 -65 145 -21 l33
29 3 226 3 226 -30 0 c-20 0 -31 5 -31 14 0 8 12 72 27 143 26 123 27 139 25
409 l-1 280 49 16 c28 9 50 14 50 11 0 -4 -18 -21 -40 -40 l-40 -35 0 -106 1
-107 28 60 c30 62 60 108 61 90 0 -5 -4 -26 -10 -45 -5 -19 -34 -165 -64 -325
-30 -159 -58 -304 -62 -322 l-6 -32 260 2 261 2 6 60 c10 80 39 174 69 217
l24 36 -42 206 c-23 113 -39 205 -36 203 3 -2 40 -20 83 -41 76 -36 81 -37
127 -26 68 16 119 0 163 -50 36 -43 65 -50 91 -24 40 39 11 73 -84 99 -36 9
-101 30 -144 46 -71 26 -81 27 -96 14 -30 -27 -74 -18 -121 24 -56 49 -46 64
11 16 23 -19 53 -35 66 -35 28 0 64 36 64 63 0 29 -67 88 -144 128 l-66 34
-42 -24 c-23 -13 -58 -28 -76 -32 -46 -10 -127 12 -161 45 -33 31 -67 33 -166
6z m175 -52 c71 -44 146 -49 212 -15 42 21 51 23 83 11 78 -26 150 -93 126
-117 -7 -7 -22 -2 -50 17 -43 30 -68 31 -84 4 -8 -12 -7 -24 3 -42 10 -19 11
-32 3 -48 -7 -17 -4 -56 13 -148 51 -270 50 -251 20 -312 -15 -30 -34 -90 -43
-134 -8 -43 -21 -82 -27 -86 -13 -9 -388 -11 -410 -2 -9 3 -16 16 -16 29 0 12
25 143 55 291 31 148 56 288 57 312 1 47 -21 73 -54 64 -27 -7 -22 20 12 63
35 44 36 48 14 69 -31 32 -119 7 -129 -37 -2 -12 -6 -152 -8 -312 -3 -251 -7
-303 -25 -385 -27 -119 -28 -152 -2 -175 19 -17 20 -31 20 -220 0 -219 1 -215
-55 -215 -53 0 -55 15 -55 395 0 380 -2 395 -54 395 -52 0 -53 -7 -61 -400 -4
-225 -11 -370 -17 -377 -17 -21 -65 -15 -82 9 -13 18 -16 51 -16 156 l0 134
40 37 c26 23 41 47 43 66 5 43 -27 180 -57 245 -25 54 -26 58 -26 297 0 240 0
242 -24 269 l-23 28 -26 -26 c-14 -14 -37 -49 -51 -77 -28 -54 -56 -68 -56
-27 0 51 57 144 125 204 l48 42 151 0 c125 1 167 5 246 25 52 13 103 24 112
24 9 1 40 -13 68 -31z"/>
<path d="M1865 1803 c-23 -6 -88 -53 -82 -60 3 -2 22 7 42 22 52 35 100 32
223 -11 56 -20 105 -34 109 -30 9 8 13 6 -114 49 -108 36 -135 40 -178 30z"/>
<path d="M2420 1778 c-33 -9 -84 -47 -76 -56 3 -2 19 7 36 20 40 29 127 31
251 4 58 -12 96 -16 115 -10 25 7 18 9 -41 15 -38 4 -105 14 -148 23 -88 18
-89 18 -137 4z"/>
<path d="M2220 1759 c0 -7 7 -21 16 -30 16 -18 18 -18 45 -2 29 17 34 41 8 34
-20 -5 -32 -4 -51 4 -12 5 -18 3 -18 -6z"/>
<path d="M1763 1561 c-55 -26 -77 -67 -70 -135 4 -41 10 -55 41 -83 31 -29 43
-33 90 -33 39 0 60 6 80 21 56 44 72 118 36 176 -39 65 -108 86 -177 54z m130
-49 c10 -11 21 -38 24 -60 5 -36 2 -45 -25 -72 -79 -78 -202 12 -148 109 29
52 107 64 149 23z"/>
<path d="M2326 1519 c-42 -11 -85 -57 -97 -103 -13 -49 7 -109 52 -152 59 -57
174 -32 215 48 32 61 12 149 -42 184 -33 22 -92 32 -128 23z m110 -73 c35 -35
42 -64 24 -110 -19 -51 -91 -75 -144 -47 -51 28 -62 111 -20 160 21 25 33 31
66 31 32 0 47 -7 74 -34z"/>
<path d="M356 1490 c-57 -51 -60 -125 -6 -179 79 -79 210 -21 210 93 0 31 -7
45 -39 77 -34 34 -45 39 -84 39 -37 0 -53 -6 -81 -30z m134 -30 c44 -44 35
-107 -18 -134 -38 -20 -71 -13 -99 19 -31 36 -29 71 6 106 35 35 81 39 111 9z"/>
<path d="M2012 1440 c-16 -15 -22 -33 -22 -60 0 -36 10 -52 104 -164 l105
-125 -19 -48 c-32 -85 -88 -283 -82 -287 4 -2 26 -9 48 -15 l41 -11 5 -130 c5
-127 6 -131 33 -160 33 -34 64 -38 88 -12 14 15 17 42 17 155 0 135 0 137 23
137 20 0 25 -11 51 -110 40 -155 75 -192 131 -135 31 30 31 57 5 170 -11 47
-20 87 -20 89 0 2 13 9 29 14 l29 10 -19 82 c-11 46 -30 115 -43 154 l-24 71
31 27 c18 15 59 47 91 70 129 94 141 105 144 127 5 31 -34 71 -69 71 -27 0
-220 -120 -249 -154 -9 -12 -31 -16 -76 -16 l-64 0 -88 112 c-48 62 -97 123
-109 135 -27 28 -62 29 -91 3z m130 -117 c40 -49 92 -107 114 -130 41 -42 42
-43 111 -43 53 0 74 4 89 18 47 43 208 143 227 140 41 -6 26 -27 -71 -96 -109
-78 -152 -122 -152 -155 0 -12 9 -51 20 -85 11 -35 26 -90 34 -123 13 -56 12
-60 -10 -91 l-23 -33 20 -93 c21 -97 20 -122 -5 -122 -20 0 -29 19 -55 115
-33 119 -84 158 -130 99 -18 -23 -21 -41 -21 -140 0 -105 -1 -114 -19 -114
-27 0 -32 21 -40 149 l-6 113 -38 33 c-20 18 -37 36 -37 41 0 5 18 68 41 140
42 132 45 166 16 196 -26 27 -144 174 -161 200 -19 29 -14 68 9 68 8 0 47 -39
87 -87z"/>
<path d="M267 1342 c-42 -46 -1 -130 47 -97 11 8 29 15 39 15 16 0 13 7 -17
40 -20 22 -36 45 -36 50 0 16 -15 12 -33 -8z"/>
<path d="M1676 1240 c-65 -57 -105 -190 -106 -351 0 -77 9 -99 41 -99 29 0 36
22 43 126 4 56 13 125 20 153 7 28 11 51 8 51 -3 0 -16 -10 -29 -21 -22 -22
-22 -22 -19 -2 10 51 48 105 83 120 54 22 199 15 235 -12 30 -22 71 -105 52
-105 -2 0 -13 6 -25 13 -17 10 -22 9 -32 -8 -19 -31 -25 -56 -26 -106 -1 -55
-7 -59 -96 -59 -87 0 -95 4 -96 54 -2 59 -12 99 -26 104 -10 3 -13 -20 -13
-95 l0 -98 135 0 135 0 1 105 c0 139 16 103 32 -74 10 -103 16 -131 30 -140
12 -8 22 -8 35 0 15 10 17 27 17 125 -1 152 -28 245 -90 306 l-42 43 -116 0
c-115 0 -117 0 -151 -30z"/>
<path d="M346 1236 c-79 -29 -134 -107 -166 -231 -24 -93 -25 -138 -5 -155 28
-23 53 -3 60 48 8 59 44 186 51 179 3 -3 -1 -47 -9 -99 -31 -187 -31 -205 -5
-222 13 -8 55 -20 94 -27 80 -13 190 0 233 28 22 14 23 19 16 81 -4 37 -13
105 -21 151 -25 146 1 111 33 -45 19 -94 38 -119 68 -94 14 12 16 25 11 72
-12 121 -75 251 -142 298 -44 29 -159 38 -218 16z m159 -37 c48 -13 80 -41
106 -92 l20 -38 -22 11 c-17 10 -24 9 -37 -4 -14 -13 -14 -31 -4 -143 10 -123
10 -129 -9 -145 -26 -22 -96 -32 -172 -24 -91 9 -91 8 -82 166 6 116 4 138 -9
149 -8 7 -20 10 -26 6 -35 -22 18 73 57 100 37 26 113 32 178 14z"/>
<path d="M1200 686 l0 -235 26 -20 c34 -27 64 -27 98 0 l26 20 0 235 0 234
-75 0 -75 0 0 -234z m108 4 c1 -102 0 -195 -3 -207 -6 -27 -49 -32 -59 -7 -8
22 -8 389 1 398 4 4 19 6 33 4 l25 -3 3 -185z"/>
<path d="M1380 690 l0 -231 25 -24 c26 -27 51 -31 88 -14 42 19 47 46 47 279
l0 220 -80 0 -80 0 0 -230z m108 178 c15 -15 17 -360 2 -389 -12 -21 -40 -25
-58 -7 -13 13 -18 389 -5 401 11 11 48 8 61 -5z"/>
<path d="M1823 882 l-133 -3 0 -219 c0 -215 0 -219 22 -234 28 -20 49 -20 74
-2 17 13 20 31 24 165 7 200 24 200 28 1 2 -147 3 -150 27 -166 30 -20 70 -12
85 16 7 12 9 98 8 232 l-3 213 -132 -3z m85 -40 c9 -7 12 -52 10 -193 -3 -156
-5 -184 -18 -184 -12 0 -16 23 -20 130 -6 151 -22 194 -68 177 -27 -10 -37
-51 -42 -177 -4 -107 -8 -130 -20 -130 -13 0 -15 28 -18 184 -2 141 1 186 10
193 17 10 149 10 166 0z"/>
<path d="M320 574 c0 -131 2 -144 19 -154 28 -14 38 -13 61 10 18 18 20 33 20
144 l0 123 -50 10 -50 10 0 -143z m47 -57 c-2 -23 -3 -1 -3 48 0 50 1 68 3 42
2 -26 2 -67 0 -90z"/>
<path d="M498 707 l-48 -10 0 -124 c0 -110 2 -125 20 -143 25 -25 45 -25 70 0
18 18 20 33 20 155 0 74 -3 134 -7 134 -5 -1 -29 -6 -55 -12z m9 -190 c-2 -23
-3 -1 -3 48 0 50 1 68 3 42 2 -26 2 -67 0 -90z"/>
</g>
</svg>
