<?xml version="1.0" standalone="no"?>
<!DOCTYPE svg PUBLIC "-//W3C//DTD SVG 20010904//EN"
 "http://www.w3.org/TR/2001/REC-SVG-20010904/DTD/svg10.dtd">
<svg version="1.0" xmlns="http://www.w3.org/2000/svg"
 width="546.000000pt" height="228.000000pt" viewBox="0 0 546.000000 228.000000"
 preserveAspectRatio="xMidYMid meet">

<g transform="translate(0.000000,228.000000) scale(0.100000,-0.100000)"
fill="#000000" stroke="none">
<path d="M4197 2270 c-93 -24 -131 -83 -125 -196 4 -78 18 -108 72 -148 23
-18 42 -21 116 -21 74 0 93 3 116 21 58 43 69 68 69 162 0 99 -18 137 -77 165
-43 21 -124 28 -171 17z"/>
<path d="M953 2148 l-123 -122 127 -128 127 -127 41 6 c56 7 123 -23 161 -73
24 -31 29 -48 31 -102 l1 -65 119 -119 118 -118 58 0 c66 0 103 -16 141 -60
73 -88 45 -220 -57 -269 -53 -26 -99 -26 -152 -2 -72 33 -111 103 -101 181 l6
45 -115 115 -115 115 0 -305 0 -305 36 -29 c113 -90 70 -273 -72 -304 -114
-25 -214 57 -214 175 0 56 22 98 74 139 l36 29 0 306 0 306 -24 11 c-13 6 -37
27 -52 48 -25 32 -29 47 -30 107 l-1 69 -124 124 -124 124 -353 -352 c-286
-287 -354 -360 -363 -390 -22 -82 -31 -71 534 -636 426 -425 529 -524 560
-533 81 -22 70 -32 640 538 450 451 527 533 528 558 2 36 0 51 -7 85 -6 28
-1010 1042 -1056 1066 -15 8 -50 14 -79 14 l-52 0 -124 -122z"/>
<path d="M4862 1999 c-16 -93 -54 -170 -104 -213 -41 -36 -113 -66 -155 -66
-22 0 -23 -2 -23 -95 l0 -94 83 -3 82 -3 6 -355 c3 -220 9 -367 16 -387 49
-142 138 -193 334 -193 136 0 349 56 349 91 0 6 -12 48 -26 94 l-26 83 -46
-15 c-68 -21 -179 -22 -218 -1 -56 30 -59 52 -59 383 l0 300 163 3 162 2 0
105 0 105 -162 2 -163 3 -3 163 -2 162 -98 0 -98 0 -12 -71z"/>
<path d="M3190 1714 c-78 -9 -156 -27 -207 -49 -75 -34 -154 -112 -189 -188
-27 -57 -29 -71 -29 -177 0 -105 2 -120 28 -171 25 -53 104 -139 137 -151 11
-4 -8 -28 -61 -79 -96 -93 -119 -130 -119 -192 0 -58 20 -100 59 -123 l29 -17
-48 -60 c-96 -118 -91 -243 12 -331 142 -122 610 -139 846 -31 71 33 154 114
183 178 34 75 34 212 1 280 -31 62 -80 101 -161 126 -88 28 -167 38 -406 52
-110 7 -203 15 -207 18 -4 3 9 31 28 62 l34 56 42 -8 c62 -12 209 -11 270 2
127 26 232 101 285 201 25 48 28 62 28 158 0 100 -2 108 -32 164 -18 33 -31
61 -29 63 2 2 45 7 95 10 l91 6 0 88 0 89 -202 0 c-112 0 -221 4 -243 9 -50
11 -188 20 -235 15z m139 -215 c91 -21 140 -86 141 -187 0 -115 -82 -192 -204
-192 -127 0 -206 72 -206 187 1 93 54 166 137 189 59 16 77 16 132 3z m-29
-1010 c149 -10 215 -25 232 -52 31 -48 -17 -120 -95 -141 -120 -34 -322 -28
-404 10 -41 20 -67 66 -58 103 3 14 17 43 31 64 l25 38 57 -6 c31 -3 127 -10
212 -16z"/>
<path d="M4007 1713 c-3 -5 -8 -35 -11 -68 -4 -33 -10 -69 -12 -81 -5 -18 1
-23 39 -34 25 -6 59 -21 76 -31 l31 -19 0 -344 c0 -263 -3 -346 -13 -354 -6
-6 -39 -14 -72 -19 l-60 -8 -3 -83 -3 -82 311 0 311 0 -3 82 -3 83 -70 10 -70
10 -3 473 -2 472 -220 0 c-120 0 -221 -3 -223 -7z"/>
</g>
</svg>
