<?xml version="1.0" standalone="no"?>
<!DOCTYPE svg PUBLIC "-//W3C//DTD SVG 20010904//EN"
 "http://www.w3.org/TR/2001/REC-SVG-20010904/DTD/svg10.dtd">
<svg version="1.0" xmlns="http://www.w3.org/2000/svg"
 width="512.000000pt" height="512.000000pt" viewBox="0 0 512.000000 512.000000"
 preserveAspectRatio="xMidYMid meet">

<g transform="translate(0.000000,512.000000) scale(0.100000,-0.100000)"
fill="#000000" stroke="none">
<path d="M1095 4461 c-25 -11 -116 -95 -242 -223 -166 -169 -203 -211 -208
-240 -16 -84 -39 -57 678 -770 l672 -666 -671 -674 c-546 -548 -673 -679 -677
-705 -14 -74 -5 -87 212 -306 113 -115 218 -215 233 -223 32 -17 91 -18 121
-3 12 6 320 309 685 673 l662 661 663 -661 c364 -364 672 -667 684 -673 30
-15 89 -14 121 3 15 8 120 108 233 223 217 219 229 235 214 305 -6 26 -142
168 -677 704 -369 370 -669 676 -667 682 2 5 299 301 659 656 360 356 663 661
673 679 25 45 21 87 -12 138 -15 24 -116 130 -222 236 -211 208 -228 218 -304
193 -28 -9 -195 -169 -697 -666 -363 -360 -663 -654 -668 -654 -4 0 -302 291
-661 646 -360 355 -663 652 -674 659 -36 24 -87 27 -130 6z"/>
</g>
</svg>
