<?xml version="1.0" standalone="no"?>
<!DOCTYPE svg PUBLIC "-//W3C//DTD SVG 20010904//EN"
 "http://www.w3.org/TR/2001/REC-SVG-20010904/DTD/svg10.dtd">
<svg version="1.0" xmlns="http://www.w3.org/2000/svg"
 width="200.000000pt" height="200.000000pt" viewBox="0 0 200.000000 200.000000"
 preserveAspectRatio="xMidYMid meet">

<g transform="translate(0.000000,200.000000) scale(0.100000,-0.100000)"
fill="#000000" stroke="none">
<path d="M169 1595 c-32 -17 -52 -66 -40 -98 5 -12 19 -31 31 -42 22 -20 36
-20 840 -20 l818 0 26 24 c43 40 35 111 -15 136 -42 22 -1620 22 -1660 0z"/>
<path d="M153 1058 c-35 -38 -34 -88 2 -123 21 -22 33 -25 99 -25 63 0 79 3
100 23 40 34 43 77 11 115 -26 31 -29 32 -109 32 -73 0 -85 -3 -103 -22z"/>
<path d="M602 1073 c-17 -6 -42 -57 -42 -83 0 -12 13 -35 29 -51 l29 -29 602
0 601 0 24 25 c31 30 33 82 4 119 l-20 26 -607 -1 c-334 0 -613 -3 -620 -6z"/>
<path d="M155 535 c-35 -34 -34 -93 1 -126 l26 -24 818 0 818 0 26 24 c26 24
34 68 20 106 -18 45 -14 45 -874 45 l-811 0 -24 -25z"/>
</g>
</svg>
