<?xml version="1.0" standalone="no"?>
<!DOCTYPE svg PUBLIC "-//W3C//DTD SVG 20010904//EN"
 "http://www.w3.org/TR/2001/REC-SVG-20010904/DTD/svg10.dtd">
<svg version="1.0" xmlns="http://www.w3.org/2000/svg"
 width="1024.000000pt" height="1024.000000pt" viewBox="0 0 1024.000000 1024.000000"
 preserveAspectRatio="xMidYMid meet">

<g transform="translate(0.000000,1024.000000) scale(0.100000,-0.100000)"
fill="#000000" stroke="none">
<path d="M1171 9379 c-89 -11 -191 -44 -281 -89 -91 -47 -126 -72 -209 -153
-315 -307 -338 -812 -51 -1156 125 -151 328 -263 528 -291 55 -8 1201 -10
4012 -8 l3935 3 75 22 c99 29 220 90 302 152 133 101 250 275 298 441 31 107
38 289 15 401 -73 362 -366 632 -737 679 -101 12 -7790 12 -7887 -1z"/>
<path d="M3665 5955 c-305 -69 -538 -279 -637 -575 -31 -92 -32 -101 -32 -260
0 -159 1 -168 32 -260 90 -268 289 -465 562 -557 l85 -28 2725 0 2725 0 95 33
c141 49 231 104 330 202 178 175 260 367 260 610 0 239 -81 432 -254 606 -96
96 -201 161 -336 207 l-95 32 -2700 2 c-2237 1 -2710 -1 -2760 -12z"/>
<path d="M6245 2545 c-141 -27 -263 -83 -376 -173 -345 -273 -422 -766 -179
-1135 51 -78 151 -182 221 -230 69 -46 196 -105 284 -129 l80 -23 1340 -3
c893 -2 1370 0 1431 7 263 31 478 161 623 377 104 155 147 313 138 508 -6 145
-30 234 -93 356 -86 168 -205 283 -379 369 -189 93 -44 85 -1625 88 -1128 1
-1408 -1 -1465 -12z"/>
</g>
</svg>
