<?xml version="1.0" standalone="no"?>
<!DOCTYPE svg PUBLIC "-//W3C//DTD SVG 20010904//EN"
 "http://www.w3.org/TR/2001/REC-SVG-20010904/DTD/svg10.dtd">
<svg version="1.0" xmlns="http://www.w3.org/2000/svg"
 width="512.000000pt" height="386.000000pt" viewBox="0 0 512.000000 386.000000"
 preserveAspectRatio="xMidYMid meet">

<g transform="translate(0.000000,386.000000) scale(0.100000,-0.100000)"
fill="#000000" stroke="none">
<path d="M1325 3846 c-105 -26 -188 -94 -237 -194 -30 -60 -33 -75 -33 -157 0
-77 4 -98 27 -147 107 -230 397 -288 582 -118 125 116 150 314 57 458 -58 89
-130 140 -229 161 -65 14 -102 13 -167 -3z"/>
<path d="M2530 3731 c-113 -36 -208 -138 -240 -254 -39 -144 44 -322 185 -395
72 -37 197 -43 277 -12 109 41 193 142 218 263 31 152 -50 306 -198 379 -36
18 -67 23 -132 25 -47 1 -96 -1 -110 -6z"/>
<path d="M2216 3267 c-69 -106 -72 -228 -12 -412 78 -235 67 -347 -37 -398
-45 -23 -47 -33 -6 -42 133 -30 278 107 311 295 22 128 -34 325 -117 413 -45
48 -95 133 -95 161 0 30 -17 24 -44 -17z"/>
<path d="M1048 3026 c-78 -21 -146 -86 -200 -190 -19 -37 -19 -42 -5 -90 44
-145 20 -263 -74 -370 -40 -45 -50 -76 -24 -76 95 0 195 -69 235 -162 57 -134
81 -394 61 -673 -16 -225 -30 -324 -53 -368 -18 -37 -19 -60 -16 -490 3 -440
4 -453 24 -492 88 -164 324 -137 374 44 6 23 10 310 10 774 l0 737 35 0 35 0
0 -742 c0 -493 4 -756 11 -781 25 -93 135 -159 228 -138 62 14 115 53 140 103
21 44 21 52 21 711 0 395 -4 667 -9 667 -5 0 -19 20 -31 45 -21 43 -21 50 -11
187 31 394 94 704 188 926 l35 83 -21 57 c-49 128 -138 221 -231 241 -74 16
-661 13 -722 -3z"/>
<path d="M4417 3000 c-128 -33 -221 -128 -247 -254 -39 -189 99 -370 293 -384
195 -15 362 153 344 347 -10 118 -80 217 -186 265 -65 29 -148 39 -204 26z"/>
<path d="M2497 2923 c4 -21 8 -90 8 -153 0 -108 -2 -119 -32 -182 -36 -77
-101 -151 -154 -179 -93 -47 -198 -44 -221 6 -13 30 0 49 51 73 75 35 89 133
42 290 -22 73 -23 74 -42 56 -31 -28 -84 -121 -123 -217 -89 -214 -153 -547
-182 -934 -7 -104 2 -142 43 -169 27 -17 89 -22 103 -7 7 6 90 666 90 711 0 6
12 12 26 12 24 0 25 -2 20 -37 -48 -341 -50 -370 -33 -450 23 -105 58 -173
129 -248 112 -120 238 -177 393 -179 154 -1 286 47 381 139 46 44 56 61 79
134 14 47 44 123 65 169 40 84 40 85 29 150 -11 73 -39 290 -39 310 0 6 11 12
23 12 23 0 24 -4 42 -169 l19 -169 78 79 c52 52 78 85 78 101 0 13 -9 68 -19
123 -70 368 -182 616 -323 716 -40 29 -197 48 -391 49 l-148 0 8 -37z"/>
<path d="M396 2921 c-156 -63 -237 -204 -206 -358 42 -209 267 -319 455 -222
190 98 230 355 78 505 -85 83 -226 115 -327 75z"/>
<path d="M3575 2732 c-126 -44 -204 -153 -205 -289 0 -121 59 -221 161 -272
85 -42 151 -48 238 -22 180 55 265 256 181 427 -69 141 -228 207 -375 156z"/>
<path d="M4744 2432 l-32 -37 8 -132 c10 -157 28 -207 90 -252 51 -37 90 -46
135 -31 38 12 47 30 16 30 -67 0 -90 52 -100 225 -6 124 -9 137 -36 181 -17
26 -34 48 -40 50 -5 1 -24 -14 -41 -34z"/>
<path d="M3990 2298 c0 -7 -18 -37 -40 -66 -35 -46 -40 -59 -40 -106 0 -78 17
-156 42 -192 49 -71 153 -107 203 -70 18 13 17 14 -12 20 -65 15 -84 60 -92
220 -5 95 -12 141 -25 169 -18 36 -36 49 -36 25z"/>
<path d="M4357 2299 c-66 -16 -138 -59 -205 -124 l-65 -64 5 -70 c6 -78 27
-121 59 -121 53 0 73 -35 44 -77 -14 -21 -14 -26 11 -75 69 -136 115 -309 140
-521 9 -77 13 -155 9 -173 -9 -50 -50 -92 -101 -105 l-44 -11 5 -47 c3 -25 7
-86 8 -135 l2 -90 -54 -16 c-48 -15 -51 -18 -29 -23 66 -17 287 -29 428 -24
147 6 354 34 413 56 26 10 27 14 27 79 0 37 -7 122 -15 187 -8 66 -15 121 -15
122 0 1 19 1 42 1 35 0 47 5 70 31 33 37 35 61 13 265 -22 206 -51 348 -102
499 l-26 77 -54 0 c-139 0 -219 86 -231 249 l-7 86 -50 17 c-55 19 -211 23
-278 7z"/>
<path d="M183 2239 c-70 -21 -128 -110 -159 -249 -32 -138 -21 -689 17 -832
13 -51 54 -81 101 -75 44 6 31 66 103 -493 64 -494 68 -509 145 -547 61 -32
159 -32 220 0 77 39 81 53 145 547 70 550 61 500 94 494 35 -7 76 10 96 40 26
40 47 266 49 521 2 355 -34 502 -142 575 l-35 25 -301 2 c-167 1 -315 -2 -333
-8z"/>
<path d="M3625 2083 c-321 -42 -523 -348 -576 -876 -14 -136 -8 -158 46 -184
33 -16 37 -16 70 0 35 17 35 17 30 -6 -5 -21 -25 -244 -25 -278 0 -11 18 -21
58 -32 244 -67 650 -67 896 0 l58 16 -7 96 c-4 53 -10 124 -14 157 l-7 62 33
-16 c30 -14 36 -14 68 1 55 26 60 49 47 185 -22 212 -69 396 -138 533 -32 65
-34 66 -78 71 -95 11 -174 84 -200 185 -12 46 -14 48 -67 64 -60 18 -148 28
-194 22z"/>
<path d="M2060 1640 c0 -9 -29 -262 -65 -564 -36 -301 -65 -560 -65 -576 0
-25 7 -30 78 -58 184 -73 378 -106 617 -106 247 1 470 39 641 111 l65 28 -6
75 c-4 41 -10 78 -13 81 -4 3 -36 13 -72 22 -36 8 -78 20 -93 26 l-29 11 7 98
c3 53 8 114 11 134 5 34 3 38 -23 44 -53 13 -83 34 -104 76 -21 42 -21 43 -5
190 9 81 19 155 23 165 5 14 0 13 -28 -8 -49 -37 -155 -90 -214 -105 -27 -8
-98 -14 -157 -14 -87 0 -122 5 -187 25 -142 45 -270 152 -341 286 -22 40 -40
67 -40 59z"/>
<path d="M3464 593 c2 -10 21 -119 41 -243 21 -124 43 -240 51 -257 39 -95
197 -95 239 -1 8 18 30 130 50 248 20 118 38 227 41 243 l6 27 -217 0 c-201 0
-216 -1 -211 -17z"/>
<path d="M4250 573 c0 -2 16 -106 35 -231 29 -183 40 -234 60 -263 64 -98 238
-90 291 13 13 25 84 426 84 473 0 9 -59 12 -235 12 -129 0 -235 -2 -235 -4z"/>
<path d="M2280 213 c0 -110 13 -142 73 -187 40 -29 134 -29 173 0 57 42 69 69
72 165 3 70 1 89 -10 89 -29 1 -226 20 -265 26 l-43 6 0 -99z"/>
<path d="M2870 299 c-36 -4 -101 -11 -144 -14 l-79 -7 6 -79 c4 -43 13 -92 21
-108 48 -92 169 -119 247 -54 46 39 59 79 59 183 0 103 11 95 -110 79z"/>
</g>
</svg>
