<?xml version="1.0" standalone="no"?>
<!DOCTYPE svg PUBLIC "-//W3C//DTD SVG 20010904//EN"
 "http://www.w3.org/TR/2001/REC-SVG-20010904/DTD/svg10.dtd">
<svg version="1.0" xmlns="http://www.w3.org/2000/svg"
 width="640.000000pt" height="640.000000pt" viewBox="0 0 640.000000 640.000000"
 preserveAspectRatio="xMidYMid meet">

<g transform="translate(0.000000,640.000000) scale(0.100000,-0.100000)"
fill="#000000" stroke="none">
<path d="M2980 6394 c-25 -2 -103 -11 -175 -20 -1355 -165 -2468 -1193 -2739
-2529 -49 -241 -60 -362 -60 -645 0 -283 11 -404 60 -645 247 -1218 1203
-2196 2419 -2474 757 -173 1570 -62 2240 306 913 500 1508 1372 1651 2418 25
182 25 607 0 790 -100 734 -404 1353 -916 1866 -508 509 -1134 817 -1860 914
-110 15 -524 27 -620 19z m580 -659 c488 -75 915 -266 1279 -570 499 -417 808
-983 903 -1650 17 -118 17 -512 0 -630 -58 -404 -200 -787 -410 -1100 -571
-853 -1582 -1285 -2584 -1104 -557 100 -1052 376 -1446 804 -764 831 -878
2107 -274 3068 425 677 1128 1114 1927 1196 128 14 479 5 605 -14z"/>
<path d="M1703 4589 l-102 -210 152 -73 c84 -39 646 -303 1249 -586 604 -283
1098 -517 1098 -520 0 -3 -494 -237 -1098 -520 -603 -283 -1165 -547 -1249
-586 l-152 -73 102 -210 c55 -116 104 -210 108 -209 4 2 678 318 1498 703
l1491 700 0 195 0 195 -1491 700 c-820 385 -1494 701 -1498 703 -4 1 -53 -93
-108 -209z"/>
</g>
</svg>
