<svg width="3938" height="2475" xmlns="http://www.w3.org/2000/svg" xmlns:xlink="http://www.w3.org/1999/xlink" overflow="hidden"><defs><clipPath id="clip0"><rect x="231" y="0" width="3938" height="2475"/></clipPath><clipPath id="clip1"><rect x="922" y="70" width="2556" height="2335"/></clipPath><clipPath id="clip2"><rect x="922" y="70" width="2556" height="2335"/></clipPath><clipPath id="clip3"><rect x="922" y="70" width="2556" height="2335"/></clipPath><linearGradient x1="1041.44" y1="465.872" x2="821.685" y2="914.163" gradientUnits="userSpaceOnUse" spreadMethod="pad" id="fill4"><stop offset="0" stop-color="#41873F"/><stop offset="0.3288" stop-color="#418B3D"/><stop offset="0.6352" stop-color="#419637"/><stop offset="0.9319" stop-color="#3FA92D"/><stop offset="1" stop-color="#3FAE2A"/></linearGradient><clipPath id="clip5"><path d="M1880.17 433.115C1870.94 427.918 1859.97 427.918 1850.73 433.115L1607.68 573.435C1598.45 578.632 1593.25 588.449 1593.25 598.843L1593.25 880.06C1593.25 890.454 1599.02 900.271 1607.68 905.468L1850.73 1045.79C1859.97 1050.98 1870.94 1050.98 1880.17 1045.79L2123.22 905.468C2132.46 900.271 2137.65 890.454 2137.65 880.06L2137.65 598.843C2137.65 588.449 2131.88 578.632 2123.22 573.435L1880.17 433.115Z"/></clipPath><linearGradient x1="905.514" y1="700.482" x2="1522.12" y2="244.902" gradientUnits="userSpaceOnUse" spreadMethod="pad" id="fill6"><stop offset="0" stop-color="#41873F"/><stop offset="0.1376" stop-color="#41873F"/><stop offset="0.4032" stop-color="#54A044"/><stop offset="0.7136" stop-color="#66B848"/><stop offset="0.9081" stop-color="#6CC04A"/><stop offset="1" stop-color="#6CC04A"/></linearGradient><clipPath id="clip7"><path d="M1880.17 433.115C1870.94 427.918 1859.97 427.918 1850.73 433.115L1607.68 573.435C1598.45 578.632 1593.25 588.449 1593.25 598.843L1593.25 880.06C1593.25 890.454 1599.02 900.271 1607.68 905.468L1850.73 1045.79C1859.97 1050.98 1870.94 1050.98 1880.17 1045.79L2123.22 905.468C2132.46 900.271 2137.65 890.454 2137.65 880.06L2137.65 598.843C2137.65 588.449 2131.88 578.632 2123.22 573.435L1880.17 433.115Z"/></clipPath><linearGradient x1="661.341" y1="310.691" x2="1223.73" y2="310.691" gradientUnits="userSpaceOnUse" spreadMethod="pad" id="fill8"><stop offset="0" stop-color="#6CC04A"/><stop offset="0.0919165" stop-color="#6CC04A"/><stop offset="0.2864" stop-color="#66B848"/><stop offset="0.5968" stop-color="#54A044"/><stop offset="0.8624" stop-color="#41873F"/><stop offset="1" stop-color="#41873F"/></linearGradient><linearGradient x1="661.341" y1="667.565" x2="1223.73" y2="667.565" gradientUnits="userSpaceOnUse" spreadMethod="pad" id="fill9"><stop offset="0" stop-color="#6CC04A"/><stop offset="0.0919165" stop-color="#6CC04A"/><stop offset="0.2864" stop-color="#66B848"/><stop offset="0.5968" stop-color="#54A044"/><stop offset="0.8624" stop-color="#41873F"/><stop offset="1" stop-color="#41873F"/></linearGradient><linearGradient x1="661.341" y1="828.117" x2="1223.73" y2="828.117" gradientUnits="userSpaceOnUse" spreadMethod="pad" id="fill10"><stop offset="0" stop-color="#6CC04A"/><stop offset="0.0919165" stop-color="#6CC04A"/><stop offset="0.2864" stop-color="#66B848"/><stop offset="0.5968" stop-color="#54A044"/><stop offset="0.8624" stop-color="#41873F"/><stop offset="1" stop-color="#41873F"/></linearGradient><linearGradient x1="659.51" y1="900.682" x2="1225.51" y2="900.682" gradientUnits="userSpaceOnUse" spreadMethod="pad" id="fill11"><stop offset="0" stop-color="#6CC04A"/><stop offset="0.0919165" stop-color="#6CC04A"/><stop offset="0.2864" stop-color="#66B848"/><stop offset="0.5968" stop-color="#54A044"/><stop offset="0.8624" stop-color="#41873F"/><stop offset="1" stop-color="#41873F"/></linearGradient><linearGradient x1="1306.55" y1="452.581" x2="959.703" y2="1160.15" gradientUnits="userSpaceOnUse" spreadMethod="pad" id="fill12"><stop offset="0" stop-color="#41873F"/><stop offset="0.3288" stop-color="#418B3D"/><stop offset="0.6352" stop-color="#419637"/><stop offset="0.9319" stop-color="#3FA92D"/><stop offset="1" stop-color="#3FAE2A"/></linearGradient></defs><g clip-path="url(#clip0)" transform="translate(-231 0)"><path d="M590.306 824.764 401.676 824.764 401.676 1409.06 324.614 1409.06 324.614 824.764 137.134 824.764 137.134 755.754 590.306 755.754 590.306 824.764ZM945.713 942.083 730.628 1483.82C692.672 1580.44 638.614 1628.75 569.603 1628.75 550.05 1628.75 533.948 1626.45 521.295 1623L521.295 1556.28C537.398 1562.03 552.35 1564.33 565.002 1564.33 602.958 1564.33 630.562 1541.33 650.116 1496.47L686.921 1407.91 505.193 942.083 588.006 942.083 714.526 1300.94C715.676 1305.54 719.126 1317.04 723.728 1336.6L726.028 1336.6C727.178 1329.7 730.628 1318.19 735.229 1302.09L867.501 942.083 945.713 942.083 945.713 942.083ZM1067.63 1341.2 1065.33 1341.2 1065.33 1623 990.571 1623 990.571 942.083 1065.33 942.083 1065.33 1023.75 1067.63 1023.75C1104.44 961.637 1158.5 930.581 1228.66 930.581 1288.47 930.581 1335.63 951.286 1368.98 992.691 1402.34 1034.1 1419.59 1090.46 1419.59 1160.62 1419.59 1238.83 1400.03 1300.94 1362.08 1348.1 1324.12 1395.26 1272.36 1418.26 1206.8 1418.26 1148.15 1420.56 1100.99 1394.11 1067.63 1341.2L1067.63 1341.2ZM1066.48 1153.72 1066.48 1219.28C1066.48 1258.38 1079.13 1290.59 1104.44 1317.04 1129.74 1343.5 1160.8 1357.3 1199.9 1357.3 1244.76 1357.3 1280.42 1340.05 1306.87 1305.54 1332.18 1271.04 1344.83 1222.73 1344.83 1160.62 1344.83 1108.86 1333.32 1067.45 1309.17 1038.7 1285.02 1008.79 1252.81 994.992 1211.41 994.992 1167.7 994.992 1133.19 1009.94 1106.74 1039.85 1079.13 1069.75 1066.48 1107.71 1066.48 1153.72L1066.48 1153.72ZM1877.36 1193.97 1548.41 1193.97C1549.56 1245.73 1563.36 1285.99 1589.82 1314.74 1616.27 1343.5 1653.08 1357.3 1700.23 1357.3 1753.14 1357.3 1801.45 1340.05 1845.15 1305.54L1845.15 1375.7C1803.76 1405.61 1749.69 1420.56 1682.98 1420.56 1617.42 1420.56 1565.66 1399.86 1527.71 1357.3 1489.75 1314.74 1471.35 1254.93 1471.35 1179.02 1471.35 1106.56 1492.05 1046.75 1533.46 1001.89 1574.86 955.886 1625.47 932.882 1686.43 932.882 1747.39 932.882 1794.56 952.436 1827.91 992.691 1861.27 1031.8 1878.51 1087.01 1878.51 1157.17L1877.36 1193.97 1877.36 1193.97ZM1800.29 1130.71C1800.29 1087.01 1789.95 1053.65 1769.24 1029.5 1748.54 1005.34 1719.79 993.842 1684.13 993.842 1648.47 993.842 1618.58 1006.49 1594.42 1031.8 1570.27 1057.1 1554.16 1090.46 1548.41 1130.71L1800.29 1130.71ZM1914.17 1386.05 1914.17 1334.3C1961.33 1364.2 2008.48 1379.15 2056.79 1379.15 2107.4 1379.15 2146.51 1368.8 2172.95 1346.95 2199.41 1325.1 2212.06 1296.34 2212.06 1258.38 2212.06 1225.03 2202.86 1198.57 2185.62 1177.87 2168.36 1158.32 2129.25 1130.71 2070.6 1096.21 2003.89 1057.1 1962.48 1024.9 1945.22 999.593 1927.98 973.139 1918.78 943.234 1918.78 909.878 1918.78 863.871 1937.18 824.764 1972.82 792.56 2008.48 760.355 2056.79 744.252 2116.6 744.252 2155.71 744.252 2194.82 751.154 2232.77 763.805L2232.77 810.963C2194.82 793.71 2153.41 784.509 2109.71 784.509 2064.85 784.509 2030.33 796.011 2003.89 817.865 1977.43 840.867 1964.78 868.473 1964.78 902.977 1964.78 936.332 1973.98 962.788 1991.22 982.34 2008.48 1001.89 2047.59 1029.5 2106.24 1062.85 2167.2 1097.36 2207.47 1128.41 2228.17 1154.87 2248.86 1181.32 2258.07 1212.38 2258.07 1248.03 2258.07 1298.64 2240.82 1338.9 2206.31 1371.1 2171.81 1403.31 2122.36 1418.26 2059.09 1418.26 2036.08 1418.26 2010.78 1414.81 1980.88 1407.91 1950.97 1401.01 1929.12 1395.26 1914.17 1386.05L1914.17 1386.05ZM2646.84 1388.35C2612.32 1409.06 2570.93 1420.56 2522.62 1420.56 2459.36 1420.56 2407.6 1398.71 2368.49 1355 2329.38 1311.29 2309.84 1254.93 2309.84 1183.62 2309.84 1110.01 2331.69 1049.05 2375.39 1001.89 2419.1 954.736 2475.45 930.581 2544.47 930.581 2580.13 930.581 2614.63 937.483 2647.98 952.435L2647.98 999.593C2614.63 978.89 2577.82 968.539 2538.72 968.539 2483.51 968.539 2439.8 988.091 2405.3 1027.2 2370.8 1066.3 2354.68 1118.06 2354.68 1180.17 2354.68 1241.13 2370.8 1289.44 2401.85 1326.24 2432.9 1363.05 2474.31 1381.45 2524.91 1381.45 2572.07 1381.45 2612.32 1368.8 2646.84 1344.65L2646.84 1388.35 2646.84 1388.35ZM2925.19 985.791C2911.38 975.438 2895.28 970.838 2875.72 970.838 2838.91 970.838 2807.86 990.392 2783.71 1028.35 2758.39 1066.3 2746.91 1120.36 2746.91 1190.52L2746.91 1410.21 2705.49 1410.21 2705.49 942.083 2746.91 942.083 2746.91 1045.6 2749.19 1045.6C2759.55 1009.94 2776.81 982.34 2799.81 962.788 2822.82 943.234 2849.26 932.882 2880.33 932.882 2897.57 932.882 2913.68 935.183 2926.33 940.934L2926.33 985.791 2925.19 985.791 2925.19 985.791ZM2991.9 824.764C2982.68 824.764 2974.64 821.314 2967.74 814.413 2960.83 807.512 2957.38 799.461 2957.38 789.11 2957.38 778.758 2960.83 770.706 2967.74 764.955 2974.64 759.204 2982.68 755.754 2991.9 755.754 3001.1 755.754 3009.14 759.204 3017.2 764.955 3024.09 770.706 3027.54 778.758 3027.54 789.11 3027.54 798.311 3024.09 807.512 3017.2 814.413 3009.14 821.314 3001.1 824.764 2991.9 824.764ZM2971.19 1409.06 2971.19 942.083 3012.59 942.083 3012.59 1409.06 2971.19 1409.06ZM3156.37 1326.24 3154.07 1326.24 3154.07 1624.14 3112.65 1624.14 3112.65 942.083 3154.07 942.083 3154.07 1038.7 3156.37 1038.7C3173.61 1004.19 3196.62 977.739 3227.67 959.336 3258.74 940.934 3293.24 931.732 3330.04 931.732 3389.86 931.732 3435.86 952.435 3469.22 992.691 3502.57 1034.1 3518.67 1089.31 3518.67 1159.47 3518.67 1237.68 3499.12 1300.94 3461.16 1349.25 3423.21 1397.56 3372.6 1421.71 3310.5 1421.71 3241.48 1420.56 3189.72 1389.5 3156.37 1326.24ZM3154.07 1152.57 3154.07 1211.23C3154.07 1258.38 3169.02 1298.64 3197.77 1332 3227.67 1365.35 3265.64 1382.6 3313.95 1382.6 3361.09 1382.6 3400.2 1361.9 3430.11 1321.64 3460.02 1280.24 3474.97 1227.33 3474.97 1160.62 3474.97 1101.96 3461.16 1055.95 3433.56 1021.45 3405.95 986.94 3370.29 969.687 3324.29 969.687 3270.23 969.687 3227.67 988.091 3197.77 1024.9 3167.87 1061.7 3154.07 1103.11 3154.07 1152.57ZM3772.86 1402.16C3751.01 1412.51 3730.31 1417.11 3711.9 1417.11 3642.89 1417.11 3608.39 1375.7 3608.39 1292.89L3608.39 981.189 3524.42 981.189 3524.42 943.234 3608.39 943.234 3608.39 821.314 3629.1 814.413 3649.8 807.512 3649.8 943.234 3772.86 943.234 3772.86 981.189 3649.8 981.189 3649.8 1289.44C3649.8 1321.64 3654.39 1344.65 3664.74 1359.6 3675.1 1374.55 3692.36 1381.45 3716.51 1381.45 3733.75 1381.45 3752.16 1375.7 3772.86 1364.2L3772.86 1402.16 3772.86 1402.16Z" fill="#007ACC" transform="matrix(1.00015 0 0 1 231 0)"/><rect x="333" y="619" width="3747" height="1076" fill="#FFFFFF"/><g clip-path="url(#clip1)"><g clip-path="url(#clip2)"><g clip-path="url(#clip3)"><path d="M1261.99 1563.92C1253.33 1563.92 1245.25 1561.61 1237.74 1557.57L1160.96 1511.96C1149.42 1505.61 1155.19 1503.3 1158.65 1502.15 1174.24 1496.95 1177.13 1495.8 1193.29 1486.56 1195.02 1485.41 1197.33 1485.98 1199.06 1487.14L1257.95 1522.35C1260.26 1523.51 1263.14 1523.51 1264.88 1522.35L1495.22 1389C1497.53 1387.84 1498.69 1385.53 1498.69 1382.65L1498.69 1116.51C1498.69 1113.62 1497.53 1111.31 1495.22 1110.16L1264.88 977.378C1262.57 976.224 1259.68 976.224 1257.95 977.378L1027.6 1110.16C1025.29 1111.31 1024.14 1114.2 1024.14 1116.51L1024.14 1382.65C1024.14 1384.96 1025.29 1387.84 1027.6 1389L1090.53 1425.37C1124.59 1442.69 1145.95 1422.48 1145.95 1402.28L1145.95 1139.6C1145.95 1136.14 1148.84 1132.67 1152.88 1132.67L1182.32 1132.67C1185.79 1132.67 1189.25 1135.56 1189.25 1139.6L1189.25 1402.28C1189.25 1447.88 1164.43 1474.44 1121.13 1474.44 1107.85 1474.44 1097.46 1474.44 1068.02 1460.01L1007.4 1425.37C992.388 1416.71 983.151 1400.54 983.151 1383.22L983.151 1117.09C983.151 1099.77 992.388 1083.6 1007.4 1074.94L1237.74 941.585C1252.18 933.503 1271.8 933.503 1286.24 941.585L1516.58 1074.94C1531.59 1083.6 1540.83 1099.77 1540.83 1117.09L1540.83 1383.22C1540.83 1400.54 1531.59 1416.71 1516.58 1425.37L1286.24 1558.73C1279.31 1561.61 1270.65 1563.92 1261.99 1563.92Z" fill="#699F63" transform="matrix(1 0 0 1.00025 923 71.6332)"/><path d="M1333.58 1380.92C1232.55 1380.92 1211.76 1334.73 1211.76 1295.47 1211.76 1292.01 1214.65 1288.55 1218.69 1288.55L1248.71 1288.55C1252.18 1288.55 1255.06 1290.86 1255.06 1294.32 1259.68 1324.92 1272.96 1339.93 1334.15 1339.93 1382.65 1339.93 1403.43 1328.96 1403.43 1302.98 1403.43 1287.97 1397.66 1277 1322.03 1269.49 1259.1 1263.14 1219.85 1249.29 1219.85 1199.06 1219.85 1152.3 1259.1 1124.59 1324.92 1124.59 1398.81 1124.59 1435.18 1149.99 1439.8 1205.41 1439.8 1207.15 1439.22 1208.88 1438.07 1210.61 1436.91 1211.76 1435.18 1212.92 1433.45 1212.92L1402.85 1212.92C1399.97 1212.92 1397.08 1210.61 1396.5 1207.72 1389.57 1175.97 1371.68 1165.58 1324.34 1165.58 1271.23 1165.58 1264.88 1184.05 1264.88 1197.91 1264.88 1214.65 1272.38 1219.85 1343.97 1229.08 1414.98 1238.32 1448.46 1251.6 1448.46 1301.25 1448.46 1352.05 1406.32 1380.92 1333.58 1380.92Z" fill="#699F63" transform="matrix(1 0 0 1.00025 923 71.6332)"/><path d="M1666.1 1101.5C1666.1 1125.75 1645.9 1145.95 1621.65 1145.95 1597.4 1145.95 1577.2 1126.32 1577.2 1101.5 1577.2 1076.1 1597.98 1057.05 1621.65 1057.05 1645.32 1057.05 1666.1 1076.67 1666.1 1101.5ZM1584.13 1101.5C1584.13 1122.28 1600.87 1139.02 1621.07 1139.02 1641.86 1139.02 1658.6 1121.7 1658.6 1101.5 1658.6 1080.72 1641.86 1064.55 1621.07 1064.55 1601.45 1064.55 1584.13 1080.72 1584.13 1101.5ZM1604.91 1076.67 1622.23 1076.67C1628 1076.67 1639.55 1076.67 1639.55 1089.95 1639.55 1099.19 1633.77 1100.92 1630.31 1102.08 1637.24 1102.65 1637.82 1107.27 1638.39 1113.62 1638.97 1117.66 1639.55 1124.59 1640.7 1126.9L1630.31 1126.9C1630.31 1124.59 1628.58 1111.89 1628.58 1111.31 1628 1108.43 1626.85 1107.27 1623.38 1107.27L1614.72 1107.27 1614.72 1127.48 1604.91 1127.48 1604.91 1076.67ZM1614.15 1098.61 1621.65 1098.61C1628 1098.61 1629.16 1093.99 1629.16 1091.68 1629.16 1084.76 1624.54 1084.76 1621.65 1084.76L1613.57 1084.76 1613.57 1098.61Z" fill="#699F63" transform="matrix(1 0 0 1.00025 923 71.6332)"/><path d="M547.863 523.039C547.863 512.647 542.09 502.833 532.853 497.637L288.653 356.198C284.612 353.888 279.993 352.734 275.375 352.156 274.797 352.156 273.066 352.156 273.066 352.156 268.447 352.156 263.829 353.888 259.788 356.198L15.0099 497.06C5.77306 502.256 0 512.07 0 523.039L0.577306 901.751C0.577306 906.947 3.46383 912.143 8.08228 914.452 12.7007 917.339 18.4738 917.339 22.5149 914.452L167.996 831.32C177.233 826.124 183.006 816.31 183.006 805.919L183.006 628.686C183.006 618.294 188.779 608.48 198.016 603.284L259.788 567.491C264.406 564.605 269.602 563.45 274.797 563.45 279.993 563.45 285.189 564.605 289.23 567.491L351.002 603.284C360.239 608.48 366.012 618.294 366.012 628.686L366.012 805.919C366.012 816.31 371.785 826.124 381.022 831.32L525.348 914.452C529.967 917.339 535.74 917.339 540.358 914.452 544.977 912.143 547.863 906.947 547.863 901.751L547.863 523.039Z" fill="#333333" fill-rule="evenodd" transform="matrix(1 0 0 1.00025 923 71.6332)"/><path d="M1724.41 1.73192C1719.79-0.577306 1714.02-0.577306 1709.98 1.73192 1705.36 4.61844 1702.47 9.23689 1702.47 14.4326L1702.47 389.681C1702.47 393.145 1700.74 396.609 1697.28 398.918 1693.81 400.65 1690.35 400.65 1686.89 398.918L1625.69 363.703C1616.46 358.507 1605.49 358.507 1596.25 363.703L1351.47 505.142C1342.24 510.338 1336.46 520.152 1336.46 530.544L1336.46 812.846C1336.46 823.238 1342.24 833.052 1351.47 838.248L1596.25 979.688C1605.49 984.883 1616.46 984.883 1625.69 979.688L1870.47 838.248C1879.71 833.052 1885.48 823.238 1885.48 812.846L1885.48 109.111C1885.48 98.142 1879.71 88.3278 1870.47 83.132L1724.41 1.73192ZM1701.9 719.9C1701.9 722.787 1700.74 725.096 1698.43 726.25L1614.72 774.744C1612.41 775.899 1609.53 775.899 1607.22 774.744L1523.51 726.25C1521.2 725.096 1520.05 722.209 1520.05 719.9L1520.05 622.913C1520.05 620.026 1521.2 617.717 1523.51 616.562L1607.22 568.069C1609.53 566.914 1612.41 566.914 1614.72 568.069L1698.43 616.562C1700.74 617.717 1701.9 620.604 1701.9 622.913L1701.9 719.9Z" fill="#333333" fill-rule="evenodd" transform="matrix(1 0 0 1.00025 923 71.6332)"/><path d="M2538.99 620.604C2548.23 615.408 2553.42 605.594 2553.42 595.202L2553.42 526.503C2553.42 516.111 2547.65 506.297 2538.99 501.101L2295.94 360.239C2286.71 355.043 2275.74 355.043 2266.5 360.239L2021.72 501.679C2012.49 506.874 2006.71 516.689 2006.71 527.08L2006.71 809.382C2006.71 819.774 2012.49 829.588 2021.72 834.784L2264.77 973.337C2274.01 978.533 2284.98 978.533 2293.64 973.337L2440.85 891.36C2445.47 889.051 2448.35 883.855 2448.35 878.659 2448.35 873.463 2445.47 868.268 2440.85 865.958L2194.92 724.519C2190.3 721.632 2187.41 717.014 2187.41 711.818L2187.41 623.49C2187.41 618.294 2190.3 613.099 2194.92 610.789L2271.7 566.914C2276.32 564.028 2282.09 564.028 2286.71 566.914L2363.49 610.789C2368.11 613.676 2370.99 618.294 2370.99 623.49L2370.99 692.767C2370.99 697.962 2373.88 703.158 2378.5 705.467 2383.12 708.354 2388.89 708.354 2393.51 705.467L2538.99 620.604Z" fill="#333333" fill-rule="evenodd" transform="matrix(1 0 0 1.00025 923 71.6332)"/><path d="M2277.47 607.326C2279.2 606.171 2281.51 606.171 2283.24 607.326L2330.01 634.459C2331.74 635.613 2332.89 637.345 2332.89 639.655L2332.89 693.921C2332.89 696.231 2331.74 697.962 2330.01 699.117L2283.24 726.25C2281.51 727.405 2279.2 727.405 2277.47 726.25L2230.71 699.117C2228.98 697.962 2227.82 696.231 2227.82 693.921L2227.82 639.655C2227.82 637.345 2228.98 635.613 2230.71 634.459L2277.47 607.326Z" fill="#699F63" fill-rule="evenodd" transform="matrix(1 0 0 1.00025 923 71.6332)"/><path d="M957.173 361.393C947.936 356.198 936.967 356.198 927.73 361.393L684.684 501.679C675.448 506.874 670.252 516.689 670.252 527.08L670.252 808.228C670.252 818.619 676.025 828.434 684.684 833.629L927.73 973.915C936.967 979.11 947.936 979.11 957.173 973.915L1200.22 833.629C1209.46 828.434 1214.65 818.619 1214.65 808.228L1214.65 527.08C1214.65 516.689 1208.88 506.874 1200.22 501.679L957.173 361.393Z" fill="url(#fill4)" fill-rule="evenodd" transform="matrix(1 0 0 1.00025 923 71.6332)"/><g clip-path="url(#clip5)"><path d="M1200.8 501.679 956.595 361.393C954.286 360.239 951.4 359.084 949.09 358.507L675.448 826.702C677.757 829.588 680.643 831.897 683.53 833.629L927.73 973.915C934.658 977.956 942.74 979.11 950.245 976.801L1207.15 506.874C1205.41 504.565 1203.1 502.833 1200.8 501.679Z" fill="url(#fill6)" transform="matrix(1 0 0 1.00025 923 71.6332)"/></g><g clip-path="url(#clip7)"><path d="M919.648 310.013 916.184 311.745 920.802 311.745Z" fill="url(#fill8)" transform="matrix(1 0 0 1.00025 923 71.6332)"/><path d="M1200.8 833.629C1207.72 829.588 1212.92 822.66 1215.23 815.156L947.936 357.929C941.008 356.775 933.503 357.352 927.153 361.393L684.684 501.101 946.204 977.956C949.668 977.378 953.709 976.224 957.173 974.492L1200.8 833.629Z" fill="url(#fill9)" transform="matrix(1 0 0 1.00025 923 71.6332)"/><path d="M1223.89 829.011 1222.16 826.124 1222.16 830.165Z" fill="url(#fill10)" transform="matrix(1 0 0 1.00025 923 71.6332)"/><path d="M1200.8 833.629 957.173 973.915C953.709 975.646 950.245 976.801 946.204 977.378L951.977 986.038 1223.31 829.588 1223.31 826.124 1215.81 814.578C1214.07 822.66 1208.3 829.588 1200.8 833.629Z" fill="url(#fill11)" transform="matrix(1 0 0 1.00025 923 71.6332)"/><path d="M1200.8 833.629 957.173 973.915C953.709 975.646 950.245 976.801 946.204 977.378L951.977 986.038 1223.31 829.588 1223.31 826.124 1215.81 814.578C1214.07 822.66 1208.3 829.588 1200.8 833.629Z" fill="url(#fill12)" transform="matrix(1 0 0 1.00025 923 71.6332)"/></g><path d="M50.8029 2057.52C57.1533 2081.76 66.9675 2103.12 80.2455 2121.02 93.5235 2138.92 110.265 2153.35 131.048 2163.74 151.831 2174.13 177.233 2179.33 207.253 2179.33 251.705 2179.33 288.653 2167.78 318.095 2144.11 347.538 2121.02 365.434 2085.81 372.939 2039.04L389.104 2039.04C383.331 2088.11 363.703 2126.79 330.796 2153.93 297.89 2181.06 257.478 2194.34 208.985 2194.34 176.078 2194.92 147.79 2189.72 124.698 2178.75 101.606 2167.78 82.5547 2152.2 67.5448 2132.57 52.5348 2112.36 41.566 2089.27 34.6383 2062.14 27.7107 2035 23.6695 2005.56 23.6695 1974.39 23.6695 1939.17 28.8653 1907.99 39.2568 1880.86 49.6483 1853.73 63.5036 1830.06 80.2455 1811.58 96.9873 1792.53 117.193 1778.1 139.708 1768.29 162.223 1758.47 185.315 1753.28 208.985 1753.28 241.891 1753.28 270.179 1759.63 293.849 1772.33 317.518 1785.03 337.146 1801.77 352.156 1822.55 367.166 1843.34 378.135 1867.01 385.063 1894.14 391.991 1921.27 394.877 1948.98 393.722 1977.85L40.4114 1977.85C40.9887 2006.71 44.4525 2033.27 50.8029 2057.52ZM366.589 1888.37C359.661 1865.27 348.693 1844.49 334.837 1827.17 320.982 1809.85 303.663 1796 282.88 1785.61 262.097 1775.21 237.85 1770.6 210.717 1770.6 187.624 1770.6 166.264 1775.21 146.058 1783.87 125.853 1792.53 108.533 1805.23 93.5235 1821.98 78.5136 1838.72 66.3901 1858.92 57.1533 1882.59 47.9164 1906.26 42.1433 1932.82 40.9887 1962.26L378.135 1962.26C377.558 1936.28 374.094 1911.46 366.589 1888.37Z" transform="matrix(1 0 0 1.00025 923 71.6332)"/><path d="M746.456 1763.67 591.738 1967.46 760.889 2186.26 740.106 2186.26 581.347 1980.16 422.588 2186.26 402.959 2186.26 571.533 1967.46 417.969 1763.67 439.33 1763.67 581.347 1955.33 726.828 1763.67 746.456 1763.67Z" transform="matrix(1 0 0 1.00025 923 71.6332)"/><path d="M794.373 2331.16 794.373 1763.67 810.537 1763.67 810.537 1882.02 812.269 1882.02C817.465 1863.54 825.547 1846.22 835.939 1830.64 846.33 1815.05 858.453 1801.19 872.886 1790.22 887.319 1778.68 903.483 1770.02 921.957 1763.67 940.431 1757.32 960.059 1754.43 981.42 1754.43 1009.13 1754.43 1034.53 1760.2 1056.47 1770.6 1078.41 1781.57 1097.46 1797.15 1113.05 1816.78 1128.63 1836.41 1140.76 1860.08 1148.84 1886.63 1156.92 1913.77 1160.96 1942.63 1160.96 1974.39 1160.96 2003.83 1156.92 2032.12 1148.84 2059.25 1140.76 2086.38 1129.21 2109.47 1114.2 2129.68 1099.19 2149.89 1080.14 2166.05 1057.62 2177.6 1035.11 2189.14 1009.13 2195.49 980.265 2195.49 935.235 2195.49 898.288 2183.95 869.422 2160.28 840.557 2137.19 820.929 2106.01 811.114 2067.91L809.382 2067.91 809.382 2331.16 794.373 2331.16ZM1055.89 2161.43C1076.67 2149.31 1093.42 2133.14 1106.69 2113.52 1119.97 2093.89 1129.79 2071.95 1136.14 2047.7 1142.49 2023.46 1145.37 1998.63 1145.37 1974.39 1145.37 1947.25 1141.91 1921.27 1134.98 1896.45 1128.06 1872.2 1118.24 1850.26 1104.39 1831.79 1091.11 1812.74 1073.79 1797.73 1053.58 1786.76 1032.8 1775.79 1009.13 1770.6 981.42 1770.6 954.286 1770.6 930.617 1776.37 909.256 1786.76 887.896 1797.73 870 1812.74 855.567 1831.21 841.134 1849.69 830.165 1871.62 822.083 1895.87 814.578 1920.7 810.537 1946.67 810.537 1973.81 810.537 2040.2 826.124 2091 857.299 2126.22 888.473 2161.43 930.039 2179.33 981.42 2179.33 1010.86 2179.91 1035.69 2173.56 1055.89 2161.43Z" transform="matrix(1 0 0 1.00025 923 71.6332)"/><path d="M1236.01 2186.26 1236.01 1763.67 1252.18 1763.67 1252.18 1868.16 1253.91 1868.16C1257.95 1852 1263.72 1837.56 1271.8 1823.13 1279.89 1809.28 1290.86 1797.15 1304.71 1786.76 1318.57 1776.37 1334.73 1768.29 1353.78 1761.94 1372.83 1756.16 1394.77 1753.28 1420.17 1753.85L1420.17 1770.02C1391.31 1768.29 1365.91 1772.33 1345.12 1782.14 1323.76 1791.96 1306.44 1804.66 1293.16 1821.4 1279.31 1838.14 1269.49 1857.19 1262.57 1879.13 1256.22 1901.07 1252.75 1923.58 1252.75 1946.67L1252.75 2185.68 1236.01 2185.68Z" transform="matrix(1 0 0 1.00025 923 71.6332)"/><path d="M1450.77 2057.52C1457.12 2081.76 1466.93 2103.12 1480.21 2121.02 1493.49 2138.92 1510.23 2153.35 1531.01 2163.74 1551.8 2174.13 1577.2 2179.33 1607.22 2179.33 1651.67 2179.33 1688.62 2167.78 1718.06 2144.11 1747.5 2121.02 1765.4 2085.81 1772.91 2039.04L1789.07 2039.04C1783.3 2088.11 1763.67 2126.79 1730.76 2153.93 1697.86 2181.06 1657.44 2194.34 1608.95 2194.34 1576.04 2194.92 1547.76 2189.72 1524.66 2178.75 1501.57 2167.78 1482.52 2152.2 1467.51 2132.57 1452.5 2112.36 1441.53 2089.27 1434.6 2062.14 1427.68 2035 1423.64 2005.56 1423.64 1974.39 1423.64 1939.17 1428.83 1907.99 1439.22 1880.86 1449.61 1853.73 1463.47 1830.06 1480.21 1811.58 1496.95 1792.53 1517.16 1778.1 1539.67 1768.29 1562.19 1758.47 1585.28 1753.28 1608.95 1753.28 1641.86 1753.28 1670.15 1759.63 1693.81 1772.33 1717.48 1785.03 1737.11 1801.77 1752.12 1822.55 1767.13 1843.34 1778.1 1867.01 1785.03 1894.14 1791.96 1921.27 1794.84 1948.98 1793.69 1977.85L1440.38 1977.85C1440.95 2006.71 1444.42 2033.27 1450.77 2057.52ZM1767.13 1888.37C1760.2 1865.27 1749.24 1844.49 1735.38 1827.17 1721.53 1809.85 1704.21 1796 1683.42 1785.61 1662.64 1775.21 1638.39 1770.6 1611.26 1770.6 1588.17 1770.6 1566.81 1775.21 1546.6 1783.87 1526.4 1792.53 1509.08 1805.23 1494.07 1821.98 1479.06 1838.72 1466.93 1858.92 1457.7 1882.59 1448.46 1906.26 1442.69 1932.82 1441.53 1962.26L1778.68 1962.26C1777.52 1936.28 1774.06 1911.46 1767.13 1888.37Z" transform="matrix(1 0 0 1.00025 923 71.6332)"/><path d="M2125.06 1834.68C2118.71 1819.67 2108.9 1807.54 2097.35 1798.31 2085.23 1788.49 2070.8 1781.57 2054.05 1777.52 2037.31 1772.91 2018.84 1771.17 1998.63 1771.17 1969.19 1771.17 1945.52 1775.21 1928.78 1783.3 1912.04 1791.38 1899.34 1800.04 1890.68 1810.43 1882.59 1820.82 1877.4 1830.64 1875.09 1840.45 1872.78 1850.26 1871.62 1857.19 1871.62 1861.23 1871.62 1882.02 1875.67 1898.18 1884.33 1909.15 1892.98 1920.12 1903.95 1928.78 1918.39 1935.13 1933.4 1940.9 1948.98 1946.1 1966.3 1950.72 1983.62 1955.33 2003.83 1960.53 2026.92 1966.3 2043.08 1970.92 2059.83 1974.96 2075.99 1979.58 2092.16 1984.2 2106.59 1990.55 2119.29 1998.63 2131.99 2006.71 2142.38 2017.11 2150.46 2029.81 2158.55 2042.51 2162.59 2058.67 2162.59 2078.88 2162.59 2100.24 2157.97 2118.13 2149.31 2133.14 2140.07 2148.15 2128.53 2160.28 2114.09 2169.51 2099.66 2178.75 2082.92 2185.68 2065.02 2189.72 2046.55 2193.76 2028.65 2196.07 2010.18 2196.07 1953.6 2196.07 1910.88 2183.95 1882.59 2159.12 1854.31 2134.3 1839.3 2095.62 1839.3 2042.51L1855.46 2042.51C1855.46 2090.42 1868.74 2125.06 1895.29 2147.58 1921.85 2169.51 1959.95 2181.06 2010.18 2181.06 2025.77 2181.06 2041.35 2179.33 2057.52 2175.86 2073.68 2172.4 2088.11 2166.63 2101.39 2158.55 2114.67 2150.46 2125.64 2140.07 2133.72 2127.95 2142.38 2115.25 2146.42 2100.24 2146.42 2081.76 2146.42 2063.29 2142.38 2048.28 2133.72 2036.73 2125.06 2025.19 2114.09 2015.95 2100.81 2008.45 2087.54 2000.94 2071.95 1995.17 2054.63 1990.55 2037.31 1985.93 2019.41 1981.89 2000.94 1977.27 1980.74 1972.08 1962.84 1967.46 1947.25 1963.42 1931.66 1958.8 1918.39 1954.18 1906.26 1948.41 1888.94 1940.9 1875.67 1929.93 1867.58 1916.08 1859.5 1902.22 1855.46 1883.75 1855.46 1861.23 1855.46 1849.69 1857.77 1837.56 1862.97 1824.86 1868.16 1812.16 1876.24 1800.62 1887.79 1790.22 1899.34 1779.83 1914.35 1771.17 1932.24 1764.82 1950.14 1758.47 1972.65 1755.01 1998.63 1755.01 2045.97 1755.01 2082.92 1765.98 2110.63 1787.34 2137.76 1808.7 2151.62 1842.76 2151.62 1890.1L2135.45 1890.1C2134.88 1867.58 2131.99 1849.11 2125.06 1834.68Z" transform="matrix(1 0 0 1.00025 923 71.6332)"/><path d="M2506.08 1834.68C2499.73 1819.67 2489.92 1807.54 2478.37 1798.31 2466.25 1788.49 2451.82 1781.57 2435.07 1777.52 2418.33 1772.91 2399.86 1771.17 2379.65 1771.17 2350.21 1771.17 2326.54 1775.21 2309.8 1783.3 2293.06 1791.38 2280.36 1800.04 2271.7 1810.43 2263.62 1820.82 2258.42 1830.64 2256.11 1840.45 2253.8 1850.26 2252.65 1857.19 2252.65 1861.23 2252.65 1882.02 2256.69 1898.18 2265.35 1909.15 2274.01 1920.12 2284.98 1928.78 2299.41 1935.13 2314.42 1940.9 2330.01 1946.1 2347.32 1950.72 2364.64 1955.33 2384.85 1960.53 2407.94 1966.3 2424.11 1970.92 2440.85 1974.96 2457.01 1979.58 2473.18 1984.2 2487.61 1990.55 2500.31 1998.63 2513.01 2006.71 2523.4 2017.11 2531.49 2029.81 2539.57 2042.51 2543.61 2058.67 2543.61 2078.88 2543.61 2100.24 2538.99 2118.13 2530.33 2133.14 2521.09 2148.15 2509.55 2160.28 2495.11 2169.51 2480.68 2178.75 2463.94 2185.68 2446.04 2189.72 2427.57 2193.76 2409.67 2196.07 2391.2 2196.07 2334.62 2196.07 2291.9 2183.95 2263.62 2159.12 2235.33 2134.3 2220.32 2095.62 2220.32 2042.51L2236.48 2042.51C2236.48 2090.42 2249.76 2125.06 2276.32 2147.58 2302.87 2169.51 2340.97 2181.06 2391.2 2181.06 2406.79 2181.06 2422.37 2179.33 2438.54 2175.86 2454.7 2172.4 2469.14 2166.63 2482.41 2158.55 2495.69 2150.46 2506.66 2140.07 2514.74 2127.95 2523.4 2115.25 2527.44 2100.24 2527.44 2081.76 2527.44 2063.29 2523.4 2048.28 2514.74 2036.73 2506.08 2025.19 2495.11 2015.95 2481.84 2008.45 2468.56 2000.94 2452.97 1995.17 2435.65 1990.55 2418.33 1985.93 2400.44 1981.89 2381.96 1977.27 2361.76 1972.08 2343.86 1967.46 2328.27 1963.42 2312.69 1958.8 2299.41 1954.18 2287.28 1948.41 2269.97 1940.9 2256.69 1929.93 2248.61 1916.08 2240.52 1902.22 2236.48 1883.75 2236.48 1861.23 2236.48 1849.69 2238.79 1837.56 2243.99 1824.86 2249.18 1812.16 2257.26 1800.62 2268.81 1790.22 2280.36 1779.83 2295.37 1771.17 2313.26 1764.82 2331.16 1758.47 2353.68 1755.01 2379.65 1755.01 2426.99 1755.01 2463.94 1765.98 2491.65 1787.34 2518.78 1808.7 2532.64 1842.76 2532.64 1890.1L2516.48 1890.1C2515.9 1867.58 2512.43 1849.11 2506.08 1834.68Z" transform="matrix(1 0 0 1.00025 923 71.6332)"/></g></g></g></g></svg>